<?xml version="1.0" encoding="utf-8"?>
<!-- Generator: Adobe Illustrator 16.0.0, SVG Export Plug-In . SVG Version: 6.00 Build 0)  -->
<!DOCTYPE svg PUBLIC "-//W3C//DTD SVG 1.1//EN" "http://www.w3.org/Graphics/SVG/1.1/DTD/svg11.dtd">
<svg version="1.1" id="Ebene_1" xmlns="http://www.w3.org/2000/svg" xmlns:xlink="http://www.w3.org/1999/xlink" x="0px" y="0px"
	 width="992.13px" height="992.13px" viewBox="0 0 992.13 992.13" enable-background="new 0 0 992.13 992.13" xml:space="preserve">
<g>
	<path fill="#030405" d="M454.23,145.2c14.08-8.43,27.66-17.66,41-27.23c35.171,25.14,72.811,46.87,112.23,64.66
		c17.29,7.66,34.94,14.6,53.1,19.94c21.86,6.5,44.54,10.95,67.431,10.75c19.83-0.36,40.35-4.8,56.529-16.82
		c9.24-7.14,18.051-14.82,27.311-21.94c7.29,17.87,15.85,35.31,20.79,54.05c17.7,64.03,18.64,132.05,6.58,197.19
		c-11.73,63.01-36.32,123.25-69.311,178.07C739.6,654.27,702.25,700.18,660.86,741.85C610.65,792.18,554.43,836.23,495.25,875.5
		C434.3,834.87,376.3,789.41,325,737c-56.88-57.99-105.81-124.65-138.63-199.22c-19.76-44.79-33.52-92.34-39.45-140.98
		c-5.83-47.01-4.61-95,4.63-141.5c4-19.1,8.89-38.16,16.82-56.06c3.54-8.23,6.87-16.54,10.52-24.73
		c8.77,7.09,17.44,14.29,26.28,21.29c16.41,12.59,37.5,17.23,57.84,17.53c22.41,0.15,44.62-4.15,66.07-10.39
		C373.28,189.76,414.82,168.93,454.23,145.2L454.23,145.2z"/>
	<path fill="#FFFFFF" d="M472.62,142.64c7.69-4.93,15.189-10.16,22.59-15.52c31.57,22.47,65.26,41.9,100.25,58.53
		c19.29,9.04,39.07,17.11,59.41,23.49c23.99,7.37,48.91,12.69,74.12,12.27c20.609-0.45,41.79-5.4,58.569-17.86
		c7.4-5.7,14.521-11.76,21.82-17.58c3.78,8.24,7.15,16.67,10.67,25.03c7.83,20.61,12.65,42.25,16.11,63.98
		c2.99,20.19,4.81,40.59,4.649,61.02c1.04,71.03-16,141.72-45.72,206.05c-26.81,58.391-63.71,111.79-106.33,159.72
		c-56.54,63.471-122.89,117.62-193.55,164.61c-59.25-39.68-115.59-84.04-165.65-134.93c-56.42-57.48-105.1-123.46-137.66-197.4
		c-32.46-73.04-47.88-154.17-40.51-233.97c2.37-25.71,6.93-51.3,14.6-75.98c3.93-13.11,9.92-25.46,15.08-38.09
		c11.31,8.3,21.22,18.71,34,24.88c18.76,9.32,40.26,11.54,60.93,10.19c29.12-2.04,57.45-10.18,84.62-20.55
		C399.9,185.34,437.2,165.34,472.62,142.64L472.62,142.64z"/>
	<path fill="#030405" d="M373.99,221.91c42.63-17.11,83.09-39.37,121.239-64.88c35.16,23.31,72.101,44.12,110.98,60.59
		c35.86,15,73.69,27.05,112.79,28.75c28.39,1.2,58.03-4.76,81.25-21.89c7.03,19.59,11.22,40.1,14.16,60.67
		c2.1,15.86,3.41,31.85,3.41,47.85c0.949,8.09-0.341,16.18-0.19,24.28c-3.02,79.13-29.02,156.29-69.17,224.16
		c-30.229,51.29-68.3,97.649-110.56,139.46c-43.79,43-91.86,81.59-142.721,115.909c-60.04-41.029-116.79-87.29-166.39-140.6
		c-54.31-58.22-99.95-125.57-127.61-200.55c-22.46-60.52-32.64-125.87-27.18-190.29c2.29-27.43,7.36-54.72,16.16-80.84
		c13.09,9.189,28,15.75,43.7,18.899c17.02,3.61,34.6,3.66,51.85,1.95C316.11,242.02,345.62,233.1,373.99,221.91L373.99,221.91z"/>
	<path fill="#FFFFFF" d="M433.83,223.48c22.27-0.1,44.54-0.06,66.81-0.02c-16.109,44.12-32.189,88.25-48.29,132.38
		c22.57,0.1,45.14-0.02,67.7,0.06c6.73,0.03,13.561,2.96,17.5,8.56c5.25,6.87,5.24,16.4,2.32,24.24
		c-22.29,61.1-44.54,122.22-66.86,183.31c-3.87,9.83-6.25,20.57-13.13,28.88c-9.58,11.811-24.29,20.521-39.86,19.79
		c-43.64-0.08-87.29,0.09-130.93-0.09C337.28,488.2,385.69,355.89,433.83,223.48L433.83,223.48z"/>
	<path fill="#FFFFFF" d="M373.78,228.09c7.64,2.58,15.1,5.69,22.68,8.45c4.83,1.97,10.01,3.57,14.1,6.93
		c4.59,4.33,3.3,11.25,1.57,16.61c-2.47,7.16-4.31,14.9-9.16,20.9c-2.52,3.36-7.04,3.23-10.7,2.3c0.56-1.89,1.16-3.771,1.76-5.65
		c1.46-0.06,2.96,0.05,4.41-0.29c3.73-2.66,4.85-7.42,6.47-11.46c1.48-4.73,3.41-9.52,3.4-14.54c-0.96-4.28-5.7-5.71-9.16-7.45
		c0.47,2.64,1.66,5.35,0.79,8.04c-1.95,7.5-4.33,15.02-8.22,21.76c-3.29,5.6-10.84,6.02-16.34,3.85
		c-5.86-1.82-12.41-5.76-12.95-12.53c-0.14-7.43,3.12-14.36,5.49-21.25c1.22-3.79,3.69-7.07,7.34-8.78
		c-1.09-0.51-2.19-1.02-3.27-1.53C372.54,231.65,373.14,229.86,373.78,228.09L373.78,228.09z"/>
	<path fill="#030405" d="M378.36,238.25c3.24-1.43,6.76,0.43,9.83,1.54c3.71,1.37,7.8,4.54,7.11,8.99
		c-1.33,7.09-3.7,14.07-7.11,20.43c-2.12,3.9-7.29,3.81-10.91,2.38c-4.02-1.43-9.17-3.68-9.45-8.6c0.44-5.8,2.55-11.29,4.6-16.68
		C373.74,243.26,375.15,239.74,378.36,238.25L378.36,238.25z"/>
	<path fill="#FFFFFF" d="M358.45,282.39c3.28-1.54,6.89-0.12,10.11,0.87c6.5,2.39,12.97,4.91,19.47,7.33
		c-0.47,1.82-1.02,3.61-1.57,5.4c-7.27-1.87-13.97-5.44-21.2-7.44c-2.43-0.79-5.43-0.48-7.03,1.72c-3.33,4.58-4.9,10.18-6.39,15.58
		c-1.11,4.2-1.24,9.78,3.12,12.2c6.62,3.54,13.98,5.39,20.8,8.49c-0.67,1.78-1.33,3.56-2.02,5.33
		c-10.66-3.91-21.26-7.97-31.86-12.05c0.54-1.86,1.12-3.7,1.76-5.52c1.4,0.5,2.82,1.02,4.24,1.51c-1.25-2.71-2.06-5.67-1.46-8.66
		c0.98-5.43,2.89-10.65,4.96-15.75C352.97,287.95,354.68,283.92,358.45,282.39L358.45,282.39z"/>
	<path fill="#FFFFFF" d="M324.75,323.1c2.11,0.65,4.19,1.4,6.25,2.18c-0.52,1.89-1.13,3.75-1.75,5.61
		c-2.09-0.73-4.15-1.49-6.21-2.29C323.56,326.75,324.15,324.92,324.75,323.1L324.75,323.1z"/>
	<path fill="#FFFFFF" d="M338.74,328.28c10.71,4.12,21.57,7.87,32.13,12.36c-0.69,1.75-1.36,3.51-2.05,5.26
		c-10.66-3.92-21.24-8.02-31.86-12.03C337.5,331.98,338.1,330.13,338.74,328.28L338.74,328.28z"/>
	<path fill="#FFFFFF" d="M331.17,351.22c0.18-3.09,1.7-5.93,2.85-8.76c2.43,9.33,4.11,18.84,6.59,28.16
		c8.83-6.49,17.45-13.28,26.39-19.62c-1.06,3.16-1.73,6.59-3.6,9.4c-7.09,5.63-14.52,10.85-21.64,16.45
		c-1.17,0.7-1.33,2.09-1.69,3.28c4.98,1.81,9.93,3.69,14.85,5.66c-0.6,1.78-1.21,3.56-1.82,5.34
		c-15.44-5.41-30.66-11.47-45.97-17.26c0.59-1.86,1.22-3.7,1.85-5.54c8.9,3.07,17.48,7.12,26.55,9.66c0.92-4.39-0.83-8.67-1.6-12.93
		C333.03,360.44,331.72,355.89,331.17,351.22L331.17,351.22z"/>
	<path fill="#FFFFFF" d="M428.34,756.42c48.2-132.32,96.44-264.64,144.6-396.98c41.351,0.24,82.711,0.04,124.061,0.11
		c7.18,0.12,14.99-1.04,21.35,3.14c9.57,5.82,12.24,18.74,8.301,28.76c-22.351,61.63-44.86,123.2-67.28,184.8
		c-3.15,7.86-5.17,16.25-9.58,23.54c-8.46,13.25-22.86,23.27-38.75,24.54c-22.76,0.09-45.521-0.08-68.28,0.08
		c-15.859,44.05-32.07,87.979-47.979,132.02C472.63,756.49,450.48,756.52,428.34,756.42L428.34,756.42z"/>
	<path fill="#FFFFFF" d="M748.35,384.16c1.53-3.21,3.801-6.84,7.67-7.33c2,0,3.931,0.65,5.881,1.06
		c-0.551,1.92-1.141,3.82-1.681,5.74c-1.71-0.05-3.42-0.11-5.109-0.06c-3.891,5.38-5.641,11.88-7.591,18.12
		c-0.76,3.12-2,6.45-0.93,9.64c1.59,1.71,4.89,3.42,6.75,1.17c1.13-1.38,1.74-3.07,2.36-4.72c2.41-6.9,4.479-13.93,7.37-20.66
		c1.43-3.17,4.13-6.55,7.939-6.48c5.2,0.09,11.66,3.28,11.46,9.3c-0.58,7.8-3.62,15.13-6.04,22.49c-1.8,4.47-3.22,9.7-7.47,12.51
		c-3.12,1.8-6.76,0.26-9.89-0.67c0.5-1.99,1.109-3.96,1.71-5.92c2.46,0.05,6.069,1.73,7.659-1c2.771-4.38,3.91-9.51,5.641-14.34
		c1.33-4.31,3.42-8.77,2.35-13.38c-1.569-1.95-4.319-2.79-6.699-2.01c-1.971,1.55-2.83,4-3.66,6.28
		c-2.221,6.48-4.311,13.01-6.78,19.41c-1.25,3.19-3.63,6.43-7.29,6.85c-3.4-0.12-6.93-1.3-9.4-3.7c-3.109-3.32-2.22-8.22-1.21-12.2
		C743.229,397.41,745.34,390.59,748.35,384.16L748.35,384.16z"/>
	<path fill="#030405" d="M440.15,389.21c10.92-0.05,21.84-0.09,32.76,0.02c-23.66,65.18-47.53,130.29-71.22,195.46
		c-0.48,1.149-0.91,3.05-2.6,2.659c-10.35,0.011-20.7,0.021-31.04-0.02C391.87,521.21,416.2,455.28,440.15,389.21L440.15,389.21z"/>
	<path fill="#FFFFFF" d="M318.96,392.09c3-2.26,7.02-1.65,10.32-0.43c6.94,2.51,13.81,5.2,20.72,7.81
		c-0.48,1.771-1.04,3.51-1.6,5.26c-0.79-0.13-2.37-0.38-3.17-0.51c2.41,5.88-0.55,11.89-2.37,17.47c-1.84,4.71-3.12,9.83-6.35,13.83
		c-2.46,3.13-7.03,2.64-10.32,1.34c-3.08-1.18-6.67-3.31-6.76-7.02c-0.39-5.75,2.4-11.04,4.06-16.39
		c2.08-5.22,3.36-11.48,8.52-14.61c-2.61-0.85-5.19-2.14-7.98-2.11c-3.8,0.55-5.51,4.39-6.8,7.52c-1.98,5.13-4.05,10.32-4.89,15.77
		c-0.37,2.45,2.16,3.72,3.63,5.18c-0.59,1.83-1.22,3.64-1.85,5.45c-2.81-1.07-6.22-2.54-6.8-5.86c-0.98-7.06,2.11-13.75,4.32-20.28
		C313.53,400.13,314.89,395.01,318.96,392.09L318.96,392.09z"/>
	<path fill="#030405" d="M627.21,392.73c10.86,0.03,21.72-0.07,32.58,0.05c-23.99,66.01-48.07,131.989-72.1,197.979
		c-10.87,0.061-21.74,0.09-32.601-0.01C579.13,524.74,603.21,458.75,627.21,392.73L627.21,392.73z"/>
	<path fill="#030405" d="M336.34,401.51c2.47-0.29,5.52,1.6,5.43,4.34c-0.14,4.92-2.17,9.54-3.73,14.15
		c-1.36,3.55-2.34,7.38-4.75,10.4c-1.68,1.86-4.57,1.05-6.34-0.25c-2.39-1.32-1.8-4.45-1.35-6.65c1.52-5.25,3.31-10.44,5.45-15.48
		C332.25,405.51,333.39,402.39,336.34,401.51L336.34,401.51z"/>
	<path fill="#FFFFFF" d="M735.37,422.99c1.54,0.28,3.08,0.6,4.63,0.94c-1.95,8.22-5.11,16.1-7.65,24.15
		c6.28,2.18,12.44,4.71,18.83,6.56c2.33,0.72,5.061-0.1,6.09-2.44c2.11-4.11,4.261-8.87,3.15-13.57c-1.95-2.7-5.58-3.21-8.45-4.47
		c0.49-1.93,1.08-3.82,1.71-5.71c4.94,1.72,11.511,3.52,12.561,9.55c0.43,5.37-1.63,10.58-3.561,15.5
		c-1.63,3.92-4.81,8.47-9.67,7.76c-7.8-1.44-14.97-5.11-22.56-7.32c-0.94,2.69-1.84,5.4-2.771,8.1c-1.55-0.44-3.08-0.9-4.6-1.38
		c0.689-2.9,1.68-5.72,2.56-8.56c-2.569-0.89-5.109-1.84-7.68-2.68c0.25-2.05,0.81-4.03,1.58-5.94c2.649,1,5.32,1.96,8.05,2.75
		C730.21,438.49,732.74,430.72,735.37,422.99L735.37,422.99z"/>
	<path fill="#FFFFFF" d="M306.45,438.53c4.29-0.7,8.43,1.09,12.45,2.31c-3.99,12.44-8.73,24.62-12.71,37.06
		c3.63,0.88,8.57,2.05,10.99-1.73c4-6.19,6.1-13.45,7.91-20.54c1.1-3.12-1.24-5.74-3.39-7.63c0.63-1.74,1.26-3.47,1.91-5.19
		c2.9,1.12,5.7,3.12,6.46,6.32c1.34,6.68-1.45,13.18-3.6,19.37c-2.15,5.18-3.72,11.08-8.24,14.78c-4.09,2.97-9.49,1.88-13.94,0.47
		c-4.54-1.65-9.44-3.65-12.18-7.86c-2.42-3.77-1.9-8.54-0.75-12.65c1.63-5.72,3.57-11.38,6.1-16.77
		C299.17,442.75,302.25,439.3,306.45,438.53L306.45,438.53z"/>
	<path fill="#030405" d="M299.86,453.84c1.43-3.36,2.92-7.14,6.33-8.94c1.85-0.65,3.83-0.12,5.74-0.08
		c-0.65,3.95-2.25,7.64-3.53,11.41c-2.4,6.56-4.41,13.27-7.1,19.73c-2.68-1.83-5.72-4.23-5.6-7.82
		C296.38,463.2,298.06,458.46,299.86,453.84L299.86,453.84z"/>
	<path fill="#FFFFFF" d="M724.47,469.63c4.221-1.92,8.87-0.4,13.03,0.91c5,1.73,10.46,4.23,12.76,9.35
		c2.26,5.71-0.2,11.78-1.84,17.31c-2.14,5.95-3.68,12.43-7.93,17.29c-3.61,4.18-9.771,3.71-14.59,2.399
		c-4.851-1.56-10.03-3.43-13.33-7.5c-2.96-3.62-2.71-8.659-1.73-12.959c1.43-5.8,3.45-11.45,5.59-17.03
		C718,475.46,720.25,471.19,724.47,469.63L724.47,469.63z"/>
	<path fill="#030405" d="M726.52,475.63c5.261-1.07,10.5,1.27,15.03,3.74c3.45,1.76,4.68,5.99,3.76,9.58
		c-1.34,5.45-3.079,10.819-5.27,15.99c-1.37,2.869-3.45,6.369-7.021,6.479c-4.739,0.08-9.31-1.82-13.359-4.14
		c-2.86-1.55-4.51-4.95-3.87-8.15c0.88-5.37,2.8-10.5,4.7-15.57C721.73,480.48,723.15,476.89,726.52,475.63L726.52,475.63z"/>
	<path fill="#FFFFFF" d="M284.53,487.58c4.33-3.39,10.06-1.2,14.58,0.61c-0.5,1.92-1.06,3.82-1.68,5.71
		c-3.11-0.97-6.49-2.57-9.75-1.3c-3.82,4.28-5.04,10.23-6.24,15.68c-0.91,3.6,1.42,7.13,4.62,8.63c6.4,3.189,13.3,5.27,19.95,7.89
		c-0.36,1.96-0.95,3.88-1.68,5.74c-10.65-4.16-21.42-8.01-32.04-12.25c0.59-1.71,1.19-3.41,1.77-5.11
		c1.26,0.21,2.52,0.431,3.79,0.66c-1.53-3.29-1.88-7.04-0.59-10.479C279.1,497.91,280.32,491.78,284.53,487.58L284.53,487.58z"/>
	<path fill="#FFFFFF" d="M689.49,513.01c15.91,5.41,31.67,11.28,47.52,16.9c-0.57,1.93-1.18,3.85-1.819,5.76
		c-15.87-5.8-31.9-11.21-47.681-17.24C688.16,516.62,688.81,514.81,689.49,513.01L689.49,513.01z"/>
	<path fill="#FFFFFF" d="M684.36,527.85c2.239,0.53,4.449,1.221,6.63,1.99c-0.57,1.94-1.19,3.88-1.83,5.811
		c-2.09-0.75-4.17-1.511-6.25-2.261C683.33,531.53,683.8,529.67,684.36,527.85L684.36,527.85z"/>
	<path fill="#FFFFFF" d="M265.64,537.5c1.91-4.43,6.28-7.91,11.27-7.63c6.25,0.63,12.5,2.87,17.46,6.79
		c4.09,3.359,3.87,9.17,3.06,13.91c-1.47,5.81-3.52,11.489-5.87,17c-1.21,2.939-3.59,5.13-6.3,6.68c1.1,0.49,2.2,1.01,3.3,1.53
		c-0.63,1.729-1.24,3.47-1.89,5.2c-15.36-5.53-30.57-11.48-45.83-17.28c0.56-1.87,1.15-3.72,1.8-5.55
		c5.74,2.14,11.49,4.27,17.18,6.569c-0.66-2.779-1.72-5.64-0.83-8.5C260.56,549.79,262.91,543.53,265.64,537.5L265.64,537.5z"/>
	<path fill="#FFFFFF" d="M698.939,532.93c11.131,3.511,22.011,7.801,33.04,11.63c-0.399,1.83-0.869,3.641-1.38,5.45
		c-4.119-0.63-7.909-2.47-11.84-3.76c-7.189-2.68-14.5-5.04-21.63-7.87C697.72,536.56,698.34,534.75,698.939,532.93L698.939,532.93z
		"/>
	<path fill="#030405" d="M274.46,536.48c5.26-0.921,10.42,1.59,14.85,4.159c4.22,2.48,3.6,8.141,2.3,12.13
		c-1.68,5.08-3.32,10.25-5.97,14.921c-1.42,2.67-4.49,4.409-7.52,3.64c-4.28-1.05-8.7-2.45-12.17-5.24c-2.69-2.17-2.79-6-1.93-9.07
		c1.19-4.59,2.78-9.079,4.58-13.47C269.87,540.78,271.34,537.53,274.46,536.48L274.46,536.48z"/>
	<path fill="#FFFFFF" d="M687.6,565.75c2.12-6.25,5.16-14.24,12.66-15.27c6.771-0.19,13.59,2.329,19.101,6.189
		c5.109,3.771,5.199,10.78,3.67,16.38c-1.66,5.79-3.24,11.67-5.931,17.08c-1.149,2.521-3.42,4.19-5.54,5.84
		c5.03,1.891,10.181,3.48,15.141,5.59c-0.66,1.811-1.311,3.62-1.97,5.421c-15.021-5.12-29.921-10.61-44.86-15.961
		c0.52-1.859,1.069-3.71,1.67-5.539c0.85,0.13,2.56,0.399,3.42,0.529C682.1,579.25,685.66,572.25,687.6,565.75L687.6,565.75z"/>
	<path fill="#030405" d="M699.37,557.3c2.979-1.38,6.25,0.2,9.189,1.021c3.86,1.439,8.761,3.12,9.721,7.72
		c0.6,4.88-1.55,9.55-2.851,14.16c-1.649,4.33-2.84,9.56-7.05,12.17c-5.08,1.42-10.31-0.74-14.81-3c-3.12-1.45-5.37-4.79-4.771-8.3
		c0.79-5.44,2.67-10.66,4.561-15.801C694.57,562.17,696.11,558.69,699.37,557.3L699.37,557.3z"/>
</g>
</svg>
