<?xml version="1.0" encoding="UTF-8" ?>
<!DOCTYPE svg PUBLIC "-//W3C//DTD SVG 1.1//EN" "http://www.w3.org/Graphics/SVG/1.1/DTD/svg11.dtd">
<svg width="1155pt" height="866pt" viewBox="0 0 1155 866" version="1.1" xmlns="http://www.w3.org/2000/svg">
<path fill="#fefefe" d=" M 0.00 0.00 L 1155.00 0.00 L 1155.00 866.00 L 0.00 866.00 L 0.00 0.00 Z" />
<path fill="#030303" d=" M 551.23 77.20 C 565.31 68.77 578.89 59.54 592.23 49.97 C 627.40 75.11 665.04 96.84 704.46 114.63 C 721.75 122.29 739.40 129.23 757.56 134.57 C 779.42 141.07 802.10 145.52 824.99 145.32 C 844.82 144.96 865.34 140.52 881.52 128.50 C 890.76 121.36 899.57 113.68 908.83 106.56 C 916.12 124.43 924.68 141.87 929.62 160.61 C 947.32 224.64 948.26 292.66 936.20 357.80 C 924.47 420.81 899.88 481.05 866.89 535.87 C 836.60 586.27 799.25 632.18 757.86 673.85 C 707.65 724.18 651.43 768.23 592.25 807.50 C 531.30 766.87 473.30 721.41 422.00 669.00 C 365.12 611.01 316.19 544.35 283.37 469.78 C 263.61 424.99 249.85 377.44 243.92 328.80 C 238.09 281.79 239.31 233.80 248.55 187.30 C 252.55 168.20 257.44 149.14 265.37 131.24 C 268.91 123.01 272.24 114.70 275.89 106.51 C 284.66 113.60 293.33 120.80 302.17 127.80 C 318.58 140.39 339.67 145.03 360.01 145.33 C 382.42 145.48 404.63 141.18 426.08 134.94 C 470.28 121.76 511.82 100.93 551.23 77.20 Z" />
<path fill="#fefefe" d=" M 569.62 74.64 C 577.31 69.71 584.81 64.48 592.21 59.12 C 623.78 81.59 657.47 101.02 692.46 117.65 C 711.75 126.69 731.53 134.76 751.87 141.14 C 775.86 148.51 800.78 153.83 825.99 153.41 C 846.60 152.96 867.78 148.01 884.56 135.55 C 891.96 129.85 899.08 123.79 906.38 117.97 C 910.16 126.21 913.53 134.64 917.05 143.00 C 924.88 163.61 929.70 185.25 933.16 206.98 C 936.15 227.17 937.97 247.57 937.81 268.00 C 938.85 339.03 921.81 409.72 892.09 474.05 C 865.28 532.44 828.38 585.84 785.76 633.77 C 729.22 697.24 662.87 751.39 592.21 798.38 C 532.96 758.70 476.62 714.34 426.56 663.45 C 370.14 605.97 321.46 539.99 288.90 466.05 C 256.44 393.01 241.02 311.88 248.39 232.08 C 250.76 206.37 255.32 180.78 262.99 156.10 C 266.92 142.99 272.91 130.64 278.07 118.01 C 289.38 126.31 299.29 136.72 312.07 142.89 C 330.83 152.21 352.33 154.43 373.00 153.08 C 402.12 151.04 430.45 142.90 457.62 132.53 C 496.90 117.34 534.20 97.34 569.62 74.64 Z" />
<path fill="#030303" d=" M 470.99 153.91 C 513.62 136.80 554.08 114.54 592.23 89.03 C 627.39 112.34 664.33 133.15 703.21 149.62 C 739.07 164.62 776.90 176.67 816.00 178.37 C 844.39 179.57 874.03 173.61 897.25 156.48 C 904.28 176.07 908.47 196.58 911.41 217.15 C 913.51 233.01 914.82 249.00 914.82 265.00 C 915.77 273.09 914.48 281.18 914.63 289.28 C 911.61 368.41 885.61 445.57 845.46 513.44 C 815.23 564.73 777.16 611.09 734.90 652.90 C 691.11 695.90 643.04 734.49 592.18 768.81 C 532.14 727.78 475.39 681.52 425.79 628.21 C 371.48 569.99 325.84 502.64 298.18 427.66 C 275.72 367.14 265.54 301.79 271.00 237.37 C 273.29 209.94 278.36 182.65 287.16 156.53 C 300.25 165.72 315.16 172.28 330.86 175.43 C 347.88 179.04 365.46 179.09 382.71 177.38 C 413.11 174.02 442.62 165.10 470.99 153.91 Z" />
<path fill="#fefefe" d=" M 530.83 155.48 C 553.10 155.38 575.37 155.42 597.64 155.46 C 581.53 199.58 565.45 243.71 549.35 287.84 C 571.92 287.94 594.49 287.82 617.05 287.90 C 623.78 287.93 630.61 290.86 634.55 296.46 C 639.80 303.33 639.79 312.86 636.87 320.70 C 614.58 381.80 592.33 442.92 570.01 504.01 C 566.14 513.84 563.76 524.58 556.88 532.89 C 547.30 544.70 532.59 553.41 517.02 552.68 C 473.38 552.60 429.73 552.77 386.09 552.59 C 434.28 420.20 482.69 287.89 530.83 155.48 Z" />
<path fill="#fefefe" d=" M 470.78 160.09 C 478.42 162.67 485.88 165.78 493.46 168.54 C 498.29 170.51 503.47 172.11 507.56 175.47 C 512.15 179.80 510.86 186.72 509.13 192.08 C 506.66 199.24 504.82 206.98 499.97 212.98 C 497.45 216.34 492.93 216.21 489.27 215.28 C 489.83 213.39 490.43 211.51 491.03 209.63 C 492.49 209.57 493.99 209.68 495.44 209.34 C 499.17 206.68 500.29 201.92 501.91 197.88 C 503.39 193.15 505.32 188.36 505.31 183.34 C 504.35 179.06 499.61 177.63 496.15 175.89 C 496.62 178.53 497.81 181.24 496.94 183.93 C 494.99 191.43 492.61 198.95 488.72 205.69 C 485.43 211.29 477.88 211.71 472.38 209.54 C 466.52 207.72 459.97 203.78 459.43 197.01 C 459.29 189.58 462.55 182.65 464.92 175.76 C 466.14 171.97 468.61 168.69 472.26 166.98 C 471.17 166.47 470.07 165.96 468.99 165.45 C 469.54 163.65 470.14 161.86 470.78 160.09 Z" />
<path fill="#030303" d=" M 475.36 170.25 C 478.60 168.82 482.12 170.68 485.19 171.79 C 488.90 173.16 492.99 176.33 492.30 180.78 C 490.97 187.87 488.60 194.85 485.19 201.21 C 483.07 205.11 477.90 205.02 474.28 203.59 C 470.26 202.16 465.11 199.91 464.83 194.99 C 465.27 189.19 467.38 183.70 469.43 178.31 C 470.74 175.26 472.15 171.74 475.36 170.25 Z" />
<path fill="#fefefe" d=" M 455.45 214.39 C 458.73 212.85 462.34 214.27 465.56 215.26 C 472.06 217.65 478.53 220.17 485.03 222.59 C 484.56 224.41 484.01 226.20 483.46 227.99 C 476.19 226.12 469.49 222.55 462.26 220.55 C 459.83 219.76 456.83 220.07 455.23 222.27 C 451.90 226.85 450.33 232.45 448.84 237.85 C 447.73 242.05 447.60 247.63 451.96 250.05 C 458.58 253.59 465.94 255.44 472.76 258.54 C 472.09 260.32 471.43 262.10 470.74 263.87 C 460.08 259.96 449.48 255.90 438.88 251.82 C 439.42 249.96 440.00 248.12 440.64 246.30 C 442.04 246.80 443.46 247.32 444.88 247.81 C 443.63 245.10 442.82 242.14 443.42 239.15 C 444.40 233.72 446.31 228.50 448.38 223.40 C 449.97 219.95 451.68 215.92 455.45 214.39 Z" />
<path fill="#fefefe" d=" M 421.75 255.10 C 423.86 255.75 425.94 256.50 428.00 257.28 C 427.48 259.17 426.87 261.03 426.25 262.89 C 424.16 262.16 422.10 261.40 420.04 260.60 C 420.56 258.75 421.15 256.92 421.75 255.10 Z" />
<path fill="#fefefe" d=" M 435.74 260.28 C 446.45 264.40 457.31 268.15 467.87 272.64 C 467.18 274.39 466.51 276.15 465.82 277.90 C 455.16 273.98 444.58 269.88 433.96 265.87 C 434.50 263.98 435.10 262.13 435.74 260.28 Z" />
<path fill="#fefefe" d=" M 428.17 283.22 C 428.35 280.13 429.87 277.29 431.02 274.46 C 433.45 283.79 435.13 293.30 437.61 302.62 C 446.44 296.13 455.06 289.34 464.00 283.00 C 462.94 286.16 462.27 289.59 460.40 292.40 C 453.31 298.03 445.88 303.25 438.76 308.85 C 437.59 309.55 437.43 310.94 437.07 312.13 C 442.05 313.94 447.00 315.82 451.92 317.79 C 451.32 319.57 450.71 321.35 450.10 323.13 C 434.66 317.72 419.44 311.66 404.13 305.87 C 404.72 304.01 405.35 302.17 405.98 300.33 C 414.88 303.40 423.46 307.45 432.53 309.99 C 433.45 305.60 431.70 301.32 430.93 297.06 C 430.03 292.44 428.72 287.89 428.17 283.22 Z" />
<path fill="#fefefe" d=" M 525.34 688.42 C 573.54 556.10 621.78 423.78 669.94 291.44 C 711.29 291.68 752.65 291.48 794.00 291.55 C 801.18 291.67 808.99 290.51 815.35 294.69 C 824.92 300.51 827.59 313.43 823.65 323.45 C 801.30 385.08 778.79 446.65 756.37 508.25 C 753.22 516.11 751.20 524.50 746.79 531.79 C 738.33 545.04 723.93 555.06 708.04 556.33 C 685.28 556.42 662.52 556.25 639.76 556.41 C 623.90 600.46 607.69 644.39 591.78 688.43 C 569.63 688.49 547.48 688.52 525.34 688.42 Z" />
<path fill="#fefefe" d=" M 845.35 316.16 C 846.88 312.95 849.15 309.32 853.02 308.83 C 855.02 308.83 856.95 309.48 858.90 309.89 C 858.35 311.81 857.76 313.71 857.22 315.63 C 855.51 315.58 853.80 315.52 852.11 315.57 C 848.22 320.95 846.47 327.45 844.52 333.69 C 843.76 336.81 842.52 340.14 843.59 343.33 C 845.18 345.04 848.48 346.75 850.34 344.50 C 851.47 343.12 852.08 341.43 852.70 339.78 C 855.11 332.88 857.18 325.85 860.07 319.12 C 861.50 315.95 864.20 312.57 868.01 312.64 C 873.21 312.73 879.67 315.92 879.47 321.94 C 878.89 329.74 875.85 337.07 873.43 344.43 C 871.63 348.90 870.21 354.13 865.96 356.94 C 862.84 358.74 859.20 357.20 856.07 356.27 C 856.57 354.28 857.18 352.31 857.78 350.35 C 860.24 350.40 863.85 352.08 865.44 349.35 C 868.21 344.97 869.35 339.84 871.08 335.01 C 872.41 330.70 874.50 326.24 873.43 321.63 C 871.86 319.68 869.11 318.84 866.73 319.62 C 864.76 321.17 863.90 323.62 863.07 325.90 C 860.85 332.38 858.76 338.91 856.29 345.31 C 855.04 348.50 852.66 351.74 849.00 352.16 C 845.60 352.04 842.07 350.86 839.60 348.46 C 836.49 345.14 837.38 340.24 838.39 336.26 C 840.23 329.41 842.34 322.59 845.35 316.16 Z" />
<path fill="#030303" d=" M 537.15 321.21 C 548.07 321.16 558.99 321.12 569.91 321.23 C 546.25 386.41 522.38 451.52 498.69 516.69 C 498.21 517.84 497.78 519.74 496.09 519.35 C 485.74 519.36 475.39 519.37 465.05 519.33 C 488.87 453.21 513.20 387.28 537.15 321.21 Z" />
<path fill="#fefefe" d=" M 415.96 324.09 C 418.96 321.83 422.98 322.44 426.28 323.66 C 433.22 326.17 440.09 328.86 447.00 331.47 C 446.52 333.24 445.96 334.98 445.40 336.73 C 444.61 336.60 443.03 336.35 442.23 336.22 C 444.64 342.10 441.68 348.11 439.86 353.69 C 438.02 358.40 436.74 363.52 433.51 367.52 C 431.05 370.65 426.48 370.16 423.19 368.86 C 420.11 367.68 416.52 365.55 416.43 361.84 C 416.04 356.09 418.83 350.80 420.49 345.45 C 422.57 340.23 423.85 333.97 429.01 330.84 C 426.40 329.99 423.82 328.70 421.03 328.73 C 417.23 329.28 415.52 333.12 414.23 336.25 C 412.25 341.38 410.18 346.57 409.34 352.02 C 408.97 354.47 411.50 355.74 412.97 357.20 C 412.38 359.03 411.75 360.84 411.12 362.65 C 408.31 361.58 404.90 360.11 404.32 356.79 C 403.34 349.73 406.43 343.04 408.64 336.51 C 410.53 332.13 411.89 327.01 415.96 324.09 Z" />
<path fill="#030303" d=" M 724.21 324.73 C 735.07 324.76 745.93 324.66 756.79 324.78 C 732.80 390.79 708.72 456.77 684.69 522.76 C 673.82 522.82 662.95 522.85 652.09 522.75 C 676.13 456.74 700.21 390.75 724.21 324.73 Z" />
<path fill="#030303" d=" M 433.34 333.51 C 435.81 333.22 438.86 335.11 438.77 337.85 C 438.63 342.77 436.60 347.39 435.04 352.00 C 433.68 355.55 432.70 359.38 430.29 362.40 C 428.61 364.26 425.72 363.45 423.95 362.15 C 421.56 360.83 422.15 357.70 422.60 355.50 C 424.12 350.25 425.91 345.06 428.05 340.02 C 429.25 337.51 430.39 334.39 433.34 333.51 Z" />
<path fill="#fefefe" d=" M 832.37 354.99 C 833.91 355.27 835.45 355.59 837.00 355.93 C 835.05 364.15 831.89 372.03 829.35 380.08 C 835.63 382.26 841.79 384.79 848.18 386.64 C 850.51 387.36 853.24 386.54 854.27 384.20 C 856.38 380.09 858.53 375.33 857.42 370.63 C 855.47 367.93 851.84 367.42 848.97 366.16 C 849.46 364.23 850.05 362.34 850.68 360.45 C 855.62 362.17 862.19 363.97 863.24 370.00 C 863.67 375.37 861.61 380.58 859.68 385.50 C 858.05 389.42 854.87 393.97 850.01 393.26 C 842.21 391.82 835.04 388.15 827.45 385.94 C 826.51 388.63 825.61 391.34 824.68 394.04 C 823.13 393.60 821.60 393.14 820.08 392.66 C 820.77 389.76 821.76 386.94 822.64 384.10 C 820.07 383.21 817.53 382.26 814.96 381.42 C 815.21 379.37 815.77 377.39 816.54 375.48 C 819.19 376.48 821.86 377.44 824.59 378.23 C 827.21 370.49 829.74 362.72 832.37 354.99 Z" />
<path fill="#fefefe" d=" M 403.45 370.53 C 407.74 369.83 411.88 371.62 415.90 372.84 C 411.91 385.28 407.17 397.46 403.19 409.90 C 406.82 410.78 411.76 411.95 414.18 408.17 C 418.18 401.98 420.28 394.72 422.09 387.63 C 423.19 384.51 420.85 381.89 418.70 380.00 C 419.33 378.26 419.96 376.53 420.61 374.81 C 423.51 375.93 426.31 377.93 427.07 381.13 C 428.41 387.81 425.62 394.31 423.47 400.50 C 421.32 405.68 419.75 411.58 415.23 415.28 C 411.14 418.25 405.74 417.16 401.29 415.75 C 396.75 414.10 391.85 412.10 389.11 407.89 C 386.69 404.12 387.21 399.35 388.36 395.24 C 389.99 389.52 391.93 383.86 394.46 378.47 C 396.17 374.75 399.25 371.30 403.45 370.53 Z" />
<path fill="#030303" d=" M 396.86 385.84 C 398.29 382.48 399.78 378.70 403.19 376.90 C 405.04 376.25 407.02 376.78 408.93 376.82 C 408.28 380.77 406.68 384.46 405.40 388.23 C 403.00 394.79 400.99 401.50 398.30 407.96 C 395.62 406.13 392.58 403.73 392.70 400.14 C 393.38 395.20 395.06 390.46 396.86 385.84 Z" />
<path fill="#fefefe" d=" M 821.47 401.63 C 825.69 399.71 830.34 401.23 834.50 402.54 C 839.50 404.27 844.96 406.77 847.26 411.89 C 849.52 417.60 847.06 423.67 845.42 429.20 C 843.28 435.15 841.74 441.63 837.49 446.49 C 833.88 450.67 827.72 450.20 822.90 448.89 C 818.05 447.33 812.87 445.46 809.57 441.39 C 806.61 437.77 806.86 432.73 807.84 428.43 C 809.27 422.63 811.29 416.98 813.43 411.40 C 815.00 407.46 817.25 403.19 821.47 401.63 Z" />
<path fill="#030303" d=" M 823.52 407.63 C 828.78 406.56 834.02 408.90 838.55 411.37 C 842.00 413.13 843.23 417.36 842.31 420.95 C 840.97 426.40 839.23 431.77 837.04 436.94 C 835.67 439.81 833.59 443.31 830.02 443.42 C 825.28 443.50 820.71 441.60 816.66 439.28 C 813.80 437.73 812.15 434.33 812.79 431.13 C 813.67 425.76 815.59 420.63 817.49 415.56 C 818.73 412.48 820.15 408.89 823.52 407.63 Z" />
<path fill="#fefefe" d=" M 381.53 419.58 C 385.86 416.19 391.59 418.38 396.11 420.19 C 395.61 422.11 395.05 424.01 394.43 425.90 C 391.32 424.93 387.94 423.33 384.68 424.60 C 380.86 428.88 379.64 434.83 378.44 440.28 C 377.53 443.88 379.86 447.41 383.06 448.91 C 389.46 452.10 396.36 454.18 403.01 456.80 C 402.65 458.76 402.06 460.68 401.33 462.54 C 390.68 458.38 379.91 454.53 369.29 450.29 C 369.88 448.58 370.48 446.88 371.06 445.18 C 372.32 445.39 373.58 445.61 374.85 445.84 C 373.32 442.55 372.97 438.80 374.26 435.36 C 376.10 429.91 377.32 423.78 381.53 419.58 Z" />
<path fill="#fefefe" d=" M 786.49 445.01 C 802.40 450.42 818.16 456.29 834.01 461.91 C 833.44 463.84 832.83 465.76 832.19 467.67 C 816.32 461.87 800.29 456.46 784.51 450.43 C 785.16 448.62 785.81 446.81 786.49 445.01 Z" />
<path fill="#fefefe" d=" M 781.36 459.85 C 783.60 460.38 785.81 461.07 787.99 461.84 C 787.42 463.78 786.80 465.72 786.16 467.65 C 784.07 466.90 781.99 466.14 779.91 465.39 C 780.33 463.53 780.80 461.67 781.36 459.85 Z" />
<path fill="#fefefe" d=" M 362.64 469.50 C 364.55 465.07 368.92 461.59 373.91 461.87 C 380.16 462.50 386.41 464.74 391.37 468.66 C 395.46 472.02 395.24 477.83 394.43 482.57 C 392.96 488.38 390.91 494.06 388.56 499.57 C 387.35 502.51 384.97 504.70 382.26 506.25 C 383.36 506.74 384.46 507.26 385.56 507.78 C 384.93 509.51 384.32 511.25 383.67 512.98 C 368.31 507.45 353.10 501.50 337.84 495.70 C 338.40 493.83 338.99 491.98 339.64 490.15 C 345.38 492.29 351.13 494.42 356.82 496.72 C 356.16 493.94 355.10 491.08 355.99 488.22 C 357.56 481.79 359.91 475.53 362.64 469.50 Z" />
<path fill="#fefefe" d=" M 795.94 464.93 C 807.07 468.44 817.95 472.73 828.98 476.56 C 828.58 478.39 828.11 480.20 827.60 482.01 C 823.48 481.38 819.69 479.54 815.76 478.25 C 808.57 475.57 801.26 473.21 794.13 470.38 C 794.72 468.56 795.34 466.75 795.94 464.93 Z" />
<path fill="#030303" d=" M 371.46 468.48 C 376.72 467.56 381.88 470.07 386.31 472.64 C 390.53 475.12 389.91 480.78 388.61 484.77 C 386.93 489.85 385.29 495.02 382.64 499.69 C 381.22 502.36 378.15 504.10 375.12 503.33 C 370.84 502.28 366.42 500.88 362.95 498.09 C 360.26 495.92 360.16 492.09 361.02 489.02 C 362.21 484.43 363.80 479.94 365.60 475.55 C 366.87 472.78 368.34 469.53 371.46 468.48 Z" />
<path fill="#fefefe" d=" M 784.60 497.75 C 786.72 491.50 789.76 483.51 797.26 482.48 C 804.03 482.29 810.85 484.81 816.36 488.67 C 821.47 492.44 821.56 499.45 820.03 505.05 C 818.37 510.84 816.79 516.72 814.10 522.13 C 812.95 524.65 810.68 526.32 808.56 527.97 C 813.59 529.86 818.74 531.45 823.70 533.56 C 823.04 535.37 822.39 537.18 821.73 538.98 C 806.71 533.86 791.81 528.37 776.87 523.02 C 777.39 521.16 777.94 519.31 778.54 517.48 C 779.39 517.61 781.10 517.88 781.96 518.01 C 779.10 511.25 782.66 504.25 784.60 497.75 Z" />
<path fill="#030303" d=" M 796.37 489.30 C 799.35 487.92 802.62 489.50 805.56 490.32 C 809.42 491.76 814.32 493.44 815.28 498.04 C 815.88 502.92 813.73 507.59 812.43 512.20 C 810.78 516.53 809.59 521.76 805.38 524.37 C 800.30 525.79 795.07 523.63 790.57 521.37 C 787.45 519.92 785.20 516.58 785.80 513.07 C 786.59 507.63 788.47 502.41 790.36 497.27 C 791.57 494.17 793.11 490.69 796.37 489.30 Z" />
</svg>
